<?xml version="1.0" encoding="UTF-8"?><svg id="Camada_2" xmlns="http://www.w3.org/2000/svg" viewBox="0 0 1137.51 390.52"><defs><style>.cls-1{fill:#00b2e3;}.cls-2{fill:#758592;}</style></defs><g id="Layer_1"><g><path class="cls-1" d="m238.77,188.52c4.87,29.78-20.52,55.15-50.3,50.26-18.04-2.96-32.58-17.51-35.54-35.54-4.89-29.8,20.53-55.2,50.33-50.28,18.03,2.97,32.57,17.53,35.52,35.57Z"/><path class="cls-1" d="m370.76,197.63h0c-9.89,0-18.22,7.39-19.4,17.21-8.65,71.58-65.55,128.28-137.22,136.61-9.86,1.15-17.31,9.48-17.31,19.42h0c0,11.65,10.1,20.86,21.66,19.52,89.75-10.34,161.05-81.38,171.78-171.03,1.39-11.58-7.84-21.73-19.5-21.73Z"/><path class="cls-1" d="m39.43,186.65C43.93,107.96,107.88,43.98,186.58,39.45c41.11-2.37,79.01,11.14,108.19,34.94,7.87,6.42,19.26,6.05,26.44-1.13h0c8.27-8.27,7.4-21.8-1.66-29.2C283.59,14.71,237.03-2.13,186.5.22,86.28,4.88,4.78,86.47.21,186.69c-2.3,50.47,14.53,96.96,43.83,132.87,7.4,9.07,20.93,9.94,29.2,1.66h0c7.19-7.19,7.56-18.57,1.13-26.45-23.79-29.16-37.29-67.03-34.94-108.12Z"/><path class="cls-1" d="m291.93,197.63h-.01c-7.37,0-13.54,5.36-14.81,12.61-6.02,34.28-33.16,61.25-67.53,67.01-7.32,1.23-12.75,7.42-12.75,14.83h0c0,9.4,8.5,16.36,17.77,14.8,46.88-7.85,83.9-44.64,92.12-91.39,1.63-9.3-5.35-17.87-14.79-17.87Z"/><path class="cls-1" d="m187.69,83.52c-55.27,3.89-100.15,48.75-104.12,104.02-2.08,28.98,6.81,55.81,22.92,76.81,5.46,7.11,16.05,7.57,22.39,1.23h0c5.36-5.36,5.81-13.81,1.22-19.84-11.94-15.67-18.41-35.71-16.5-57.35,3.48-39.36,35.4-71.29,74.76-74.77,21.63-1.91,41.68,4.56,57.36,16.49,6.04,4.6,14.49,4.15,19.86-1.22h0c6.34-6.34,5.89-16.94-1.22-22.4-20.96-16.1-47.73-25-76.66-22.97Z"/><path class="cls-2" d="m718.36,134.9l-20.65-2.17c-7.24-.96-15.68-5.25-15.68-14.19,0-8.06,7.25-16.19,23.45-16.19,6.15,0,14.4,1.6,18.75,9.2,2.3,4.03,6.45,6.43,10.76,6.21l.95-.05c3.93-.19,7.45-2.34,9.41-5.76,1.97-3.43,2.05-7.58.22-11.09-6.69-12.83-21.78-20.8-39.36-20.8-29.19,0-48.81,15.83-48.81,39.39,0,25.84,18.73,34,34.47,36.3l21.01,2.16c10.02,1.55,15.32,6.84,15.32,15.29,0,13.08-12.25,15.83-22.53,15.83-9.49,0-20.95-4.06-25.14-13.12-2-4.34-6.28-7.14-10.9-7.14-.19,0-.37,0-.55.01-3.85.18-7.41,2.23-9.51,5.48-2.07,3.19-2.46,7.03-1.09,10.52,7.35,18.71,28.82,27.08,46.83,27.08,29.1,0,47.9-15.46,47.9-39.38,0-21.76-11.72-34.4-34.85-37.57Z"/><path class="cls-2" d="m512.94,134.9l-20.67-2.17c-7.23-.96-15.66-5.25-15.66-14.19,0-8.06,7.25-16.19,23.45-16.19,6.15,0,14.39,1.6,18.74,9.2,2.31,4.04,6.44,6.43,10.77,6.21l.94-.04c3.93-.19,7.45-2.35,9.41-5.77,1.97-3.43,2.05-7.58.21-11.09-6.7-12.83-21.78-20.79-39.37-20.79-29.2,0-48.82,15.83-48.82,39.39,0,25.84,18.74,34,34.49,36.3l21.01,2.16c10.02,1.55,15.31,6.84,15.31,15.29,0,13.08-12.25,15.83-22.52,15.83-9.5,0-20.97-4.06-25.16-13.13-2-4.33-6.27-7.13-10.89-7.13-.18,0-.37,0-.55.01-3.85.18-7.4,2.23-9.51,5.48-2.07,3.19-2.46,7.02-1.09,10.51,7.35,18.71,28.81,27.09,46.82,27.09,29.11,0,47.92-15.46,47.92-39.38,0-21.76-11.72-34.4-34.84-37.57Z"/><path class="cls-2" d="m651.07,119.45c0-23.56-19.62-39.39-48.83-39.39-17.58,0-32.66,7.96-39.37,20.78-1.84,3.51-1.76,7.66.21,11.1,1.96,3.42,5.48,5.58,9.42,5.77l.91.04c4.3.24,8.45-2.14,10.78-6.2,4.36-7.61,12.6-9.2,18.74-9.2,16.21,0,23.46,8.13,23.46,16.19,0,8.94-8.43,13.23-15.63,14.19l-20.74,2.18c-23.1,3.17-34.81,15.81-34.81,37.57v26.44c0,6.89,5.61,12.5,12.5,12.5s12.5-5.61,12.5-12.5l.02-26.24c.21-8.14,5.49-13.25,15.23-14.76l.28-.02,24.55,46.64c2.23,4.24,6.6,6.88,11.39,6.88s8.75-2.37,11.09-6.34c2.34-3.97,2.4-8.74.17-12.77l-20.82-37.62c13.24-3.13,28.91-11.79,28.91-35.23Z"/><path class="cls-1" d="m802.13,194.93v-43.88h23.62l.26.49,26.45,50.13c2.51,4.77,7.42,7.73,12.81,7.73h.24c5.18,0,9.84-2.66,12.47-7.13,2.63-4.46,2.7-9.83.19-14.36l-23.08-41.65,1.01-.37c14.03-5.08,28.18-20.27,28.18-42.76,0-29.65-20.19-49.57-50.24-49.57h-26.13c-24.67,0-34.74,9.55-34.74,32.96v108.4c0,7.98,6.49,14.47,14.47,14.47s14.47-6.49,14.47-14.47Zm0-100.87c0-9.45,5.34-14.87,14.65-14.87h15.28c14.15,0,23.29,9.4,23.29,23.95,0,13.65-10.01,23.95-23.29,23.95h-29.93v-33.03Z"/><path class="cls-1" d="m1044,105.31l55.54,86.92c6.25,11.36,14.3,17.09,23.96,17.09,3.69,0,6.82-1.58,9.59-4.82,2.76-3.24,4.16-7.2,4.16-11.77v-124.88c0-7.88-6.41-14.29-14.29-14.29s-14.29,6.41-14.29,14.29v89.99l-58.12-92.75c-4.52-7.22-12.32-11.53-20.84-11.53-7.88,0-14.29,6.41-14.29,14.29v125.42c0,7.88,6.41,14.29,14.29,14.29s14.29-6.41,14.29-14.29v-87.97Z"/><path class="cls-1" d="m1005.91,190.82l-42.31-120.96c-3.64-10.33-8.02-12.29-14.82-12.29s-11.68,2.07-16.16,12.35l-42.28,120.9c-1.48,4.23-.84,8.76,1.75,12.41,2.6,3.66,6.66,5.76,11.14,5.76,5.98,0,11.21-3.83,13.02-9.53l4.08-12.86,4.93-16.12c14.72-5.71,31.13-5.7,45.84.02l4.64,16.12,4.2,12.93c1.83,5.65,7.06,9.44,12.99,9.44,4.56,0,8.62-2.1,11.22-5.76,2.59-3.66,3.23-8.18,1.75-12.41Zm-72.75-46.32l14.92-47.78h.72s.68,0,.68,0l.22.67,14.06,47.21c-10.11-1.85-20.48-1.87-30.59-.09Z"/><path class="cls-1" d="m717.19,253.85c5.12,5.12,7.68,12.63,7.68,22.54s-2.56,17.42-7.68,22.54c-5.12,5.12-12.34,7.68-21.66,7.68h-17.11v19.79c0,4.79-3.89,8.68-8.68,8.68h0c-4.79,0-8.68-3.89-8.68-8.68v-65.52c0-8.12,6.58-14.71,14.71-14.71h19.76c9.32,0,16.54,2.56,21.66,7.68Zm-9.68,22.54c0-9.82-4.29-14.73-12.86-14.73h-16.23v29.34h16.23c4.16,0,7.35-1.12,9.55-3.37,2.2-2.25,3.31-5.99,3.31-11.24Z"/><path class="cls-1" d="m784.95,335.07h0c-3.24,0-6.22-1.8-7.73-4.67l-14.9-28.3h-12.49v24.29c0,4.79-3.89,8.68-8.68,8.68h0c-4.79,0-8.68-3.89-8.68-8.68v-61.12c0-6.66,1.54-11.51,4.62-14.55,3.08-3.04,8.24-4.56,15.48-4.56h14.73c8.82,0,15.84,2.68,21.04,8.05,5.2,5.37,7.8,12.17,7.8,20.41,0,5.99-1.56,11.18-4.68,15.55-3.12,4.37-6.97,7.39-11.55,9.05l12.67,22.86c3.23,5.82-.99,12.97-7.64,12.97Zm-9.71-51.25c2.37-2.54,3.56-5.7,3.56-9.49s-1.15-6.85-3.43-9.18c-2.29-2.33-5.35-3.5-9.18-3.5h-8.62c-5.16,0-7.74,2.62-7.74,7.87v18.1h16.36c3.66,0,6.68-1.27,9.05-3.81Z"/><path class="cls-1" d="m874.32,286.5v6.74c0,14.9-2.81,25.72-8.43,32.46s-14.63,10.11-27.03,10.11-21.37-3.37-26.91-10.11c-5.54-6.74-8.3-17.69-8.3-32.84v-6.49c0-13.82,2.81-24.1,8.43-30.84,5.62-6.74,14.52-10.11,26.72-10.11s21.16,3.41,26.91,10.24c5.74,6.83,8.62,17.11,8.62,30.84Zm-17.36,6.37v-4.62c0-7.99-1-14.36-3-19.1-2.33-5.49-7.33-8.24-14.98-8.24s-12.78,2.75-15.11,8.24c-1.92,4.49-2.87,10.86-2.87,19.1v4.62c0,10.74,1.5,17.98,4.49,21.73,1.16,1.58,2.89,2.93,5.18,4.06,2.29,1.12,5.04,1.69,8.24,1.69s5.93-.54,8.18-1.62c2.25-1.08,4-2.41,5.24-4,1.25-1.58,2.2-3.66,2.87-6.24,1.16-4.08,1.75-9.28,1.75-15.61Z"/><path class="cls-1" d="m920.33,246.17c4.79,0,8.68,3.89,8.68,8.68v48.51c0,11.9-2.46,20.29-7.37,25.16-4.91,4.87-12.03,7.3-21.35,7.3-5.99,0-11.01-.79-15.05-2.37-1.45-.57-2.86-1.26-4.24-2.06-3.99-2.35-4.74-7.83-1.61-11.24l.3-.32c2.15-2.34,5.52-2.97,8.44-1.72.65.28,1.35.55,2.1.8,2.87.96,6.16,1.44,9.86,1.44s6.56-.89,8.55-2.68c2-1.79,3-5.14,3-10.05v-52.75c0-4.79,3.89-8.68,8.68-8.68h0Z"/><path class="cls-1" d="m1061.89,300.61h.18c5.11,0,8.99,4.63,8.09,9.66-1.2,6.74-3.77,12.22-7.69,16.44-5.66,6.08-13.65,9.11-23.97,9.11-22.72,0-34.09-13.36-34.09-40.08v-7.49c0-21.06,5.83-34.25,17.48-39.58,4.58-2.16,10.11-3.25,16.61-3.25,9.49,0,17.21,2.6,23.16,7.8,3.53,3.08,6.01,6.98,7.45,11.69,1.64,5.39-2.33,10.85-7.97,10.85h-.45c-3.52,0-6.58-2.23-7.85-5.51-.88-2.28-2-4.15-3.36-5.6-2.33-2.5-5.99-3.75-10.99-3.75-5.83,0-10.16,1.83-12.99,5.49-2,2.58-3.16,6.99-3.5,13.24-.17,2-.25,4.7-.25,8.12v7.74c0,9.57,1.33,16.11,4,19.6,2.75,3.5,7.01,5.24,12.8,5.24s9.78-1.6,11.99-4.81c1.42-2.06,2.52-4.85,3.3-8.37.84-3.8,4.15-6.55,8.04-6.55Z"/><path class="cls-1" d="m1129.77,261.65h-16.11v65.68c0,4.28-3.47,7.74-7.74,7.74h-1.87c-4.28,0-7.74-3.47-7.74-7.74v-65.68h-15.98c-4.28,0-7.74-3.47-7.74-7.74h0c0-4.28,3.47-7.74,7.74-7.74h49.44c4.28,0,7.74,3.47,7.74,7.74h0c0,4.28-3.47,7.74-7.74,7.74Z"/><path class="cls-1" d="m999.92,327.33c0,4.28-3.47,7.74-7.74,7.74h-23.72c-9.99,0-17-1.73-21.04-5.18-4.04-3.45-6.06-9.55-6.06-18.29v-54.17c0-6.22,5.04-11.26,11.26-11.26h39.56c4.28,0,7.74,3.47,7.74,7.74h0c0,4.28-3.47,7.74-7.74,7.74h-33.46v20.85h21.14c4.26,0,7.72,3.44,7.74,7.7h0c.02,4.29-3.45,7.78-7.74,7.78h-21.14v12.36c0,3.5.79,5.91,2.37,7.24,1.58,1.33,4.45,2,8.62,2h22.47c4.28,0,7.74,3.47,7.74,7.74h0Z"/></g></g></svg>